REM DIRINDEX 1\2,1\3
REM DIRNAME folder01,folder02,folder03
TITLE ""
FILE "1561-1580.mp3" MP3
  TRACK 01 AUDIO
    TITLE "0:"
    INDEX 01 00:00:00
  TRACK 02 AUDIO
    TITLE "2:cjc039_2121"
    INDEX 01 00:00:27
  TRACK 03 AUDIO
    TITLE "0:"
    INDEX 01 00:01:44
  TRACK 04 AUDIO
    TITLE "3:cjc039_2122"
    INDEX 01 00:02:26
  TRACK 05 AUDIO
    TITLE "0:"
    INDEX 01 00:07:05
  TRACK 06 AUDIO
    TITLE "2:cjc039_2123"
    INDEX 01 00:08:58
  TRACK 07 AUDIO
    TITLE "0:"
    INDEX 01 00:09:71
  TRACK 08 AUDIO
    TITLE "3:cjc039_2124"
    INDEX 01 00:10:55
  TRACK 09 AUDIO
    TITLE "0:"
    INDEX 01 00:14:37
  TRACK 10 AUDIO
    TITLE "2:cjc039_2125"
    INDEX 01 00:16:12
  TRACK 11 AUDIO
    TITLE "0:"
    INDEX 01 00:17:14
  TRACK 12 AUDIO
    TITLE "3:cjc039_2126"
    INDEX 01 00:17:70
  TRACK 13 AUDIO
    TITLE "0:"
    INDEX 01 00:20:24
  TRACK 14 AUDIO
    TITLE "2:cjc039_2127"
    INDEX 01 00:21:74
  TRACK 15 AUDIO
    TITLE "0:"
    INDEX 01 00:23:10
  TRACK 16 AUDIO
    TITLE "3:cjc039_2128"
    INDEX 01 00:23:63
  TRACK 17 AUDIO
    TITLE "0:"
    INDEX 01 00:28:37
  TRACK 18 AUDIO
    TITLE "2:cjc039_2129"
    INDEX 01 00:30:06
  TRACK 19 AUDIO
    TITLE "0:"
    INDEX 01 00:31:10
  TRACK 20 AUDIO
    TITLE "3:cjc039_2130"
    INDEX 01 00:31:69
  TRACK 21 AUDIO
    TITLE "0:"
    INDEX 01 00:35:29
  TRACK 22 AUDIO
    TITLE "2:cjc039_2131"
    INDEX 01 00:37:05
  TRACK 23 AUDIO
    TITLE "0:"
    INDEX 01 00:38:51
  TRACK 24 AUDIO
    TITLE "3:cjc039_2132"
    INDEX 01 00:39:25
  TRACK 25 AUDIO
    TITLE "0:"
    INDEX 01 00:43:17
  TRACK 26 AUDIO
    TITLE "2:cjc039_2133"
    INDEX 01 00:44:69
  TRACK 27 AUDIO
    TITLE "0:"
    INDEX 01 00:45:65
  TRACK 28 AUDIO
    TITLE "3:cjc039_2134"
    INDEX 01 00:46:49
  TRACK 29 AUDIO
    TITLE "0:"
    INDEX 01 00:50:39
  TRACK 30 AUDIO
    TITLE "2:cjc039_2135"
    INDEX 01 00:52:12
  TRACK 31 AUDIO
    TITLE "0:"
    INDEX 01 00:53:35
  TRACK 32 AUDIO
    TITLE "3:cjc039_2136"
    INDEX 01 00:54:13
  TRACK 33 AUDIO
    TITLE "0:"
    INDEX 01 00:57:56
  TRACK 34 AUDIO
    TITLE "2:cjc039_2137"
    INDEX 01 00:59:38
  TRACK 35 AUDIO
    TITLE "0:"
    INDEX 01 01:00:39
  TRACK 36 AUDIO
    TITLE "3:cjc039_2138"
    INDEX 01 01:01:21
  TRACK 37 AUDIO
    TITLE "0:"
    INDEX 01 01:04:66
  TRACK 38 AUDIO
    TITLE "2:cjc039_2139"
    INDEX 01 01:06:42
  TRACK 39 AUDIO
    TITLE "0:"
    INDEX 01 01:07:55
  TRACK 40 AUDIO
    TITLE "3:cjc039_2140"
    INDEX 01 01:08:31
  TRACK 41 AUDIO
    TITLE "0:"
    INDEX 01 01:12:32
  TRACK 42 AUDIO
    TITLE "2:cjc039_2141"
    INDEX 01 01:14:08
  TRACK 43 AUDIO
    TITLE "0:"
    INDEX 01 01:15:09
  TRACK 44 AUDIO
    TITLE "3:cjc039_2142"
    INDEX 01 01:15:68
  TRACK 45 AUDIO
    TITLE "0:"
    INDEX 01 01:19:34
  TRACK 46 AUDIO
    TITLE "2:cjc039_2143"
    INDEX 01 01:21:08
  TRACK 47 AUDIO
    TITLE "0:"
    INDEX 01 01:22:29
  TRACK 48 AUDIO
    TITLE "3:cjc039_2144"
    INDEX 01 01:23:11
  TRACK 49 AUDIO
    TITLE "0:"
    INDEX 01 01:27:20
  TRACK 50 AUDIO
    TITLE "2:cjc039_2145"
    INDEX 01 01:28:72
  TRACK 51 AUDIO
    TITLE "0:"
    INDEX 01 01:30:32
  TRACK 52 AUDIO
    TITLE "3:cjc039_2146"
    INDEX 01 01:31:12
  TRACK 53 AUDIO
    TITLE "0:"
    INDEX 01 01:35:24
  TRACK 54 AUDIO
    TITLE "2:cjc039_2147"
    INDEX 01 01:36:72
  TRACK 55 AUDIO
    TITLE "0:"
    INDEX 01 01:38:36
  TRACK 56 AUDIO
    TITLE "3:cjc039_2148"
    INDEX 01 01:39:08
  TRACK 57 AUDIO
    TITLE "0:"
    INDEX 01 01:43:31
  TRACK 58 AUDIO
    TITLE "2:cjc039_2149"
    INDEX 01 01:45:04
  TRACK 59 AUDIO
    TITLE "0:"
    INDEX 01 01:46:14
  TRACK 60 AUDIO
    TITLE "3:cjc039_2150"
    INDEX 01 01:46:68
  TRACK 61 AUDIO
    TITLE "0:"
    INDEX 01 01:50:45
  TRACK 62 AUDIO
    TITLE "2:cjc039_2151"
    INDEX 01 01:52:24
  TRACK 63 AUDIO
    TITLE "0:"
    INDEX 01 01:53:51
  TRACK 64 AUDIO
    TITLE "3:cjc039_2152"
    INDEX 01 01:54:29
  TRACK 65 AUDIO
    TITLE "0:"
    INDEX 01 01:59:28
  TRACK 66 AUDIO
    TITLE "2:cjc039_2153"
    INDEX 01 02:01:05
  TRACK 67 AUDIO
    TITLE "0:"
    INDEX 01 02:02:17
  TRACK 68 AUDIO
    TITLE "3:cjc039_2154"
    INDEX 01 02:02:67
  TRACK 69 AUDIO
    TITLE "0:"
    INDEX 01 02:06:50
  TRACK 70 AUDIO
    TITLE "2:cjc039_2155"
    INDEX 01 02:08:23
  TRACK 71 AUDIO
    TITLE "0:"
    INDEX 01 02:09:66
  TRACK 72 AUDIO
    TITLE "3:cjc039_2156"
    INDEX 01 02:10:42
  TRACK 73 AUDIO
    TITLE "0:"
    INDEX 01 02:14:51
  TRACK 74 AUDIO
    TITLE "2:cjc039_2157"
    INDEX 01 02:16:24
  TRACK 75 AUDIO
    TITLE "0:"
    INDEX 01 02:17:47
  TRACK 76 AUDIO
    TITLE "3:cjc039_2158"
    INDEX 01 02:18:25
  TRACK 77 AUDIO
    TITLE "0:"
    INDEX 01 02:22:49
  TRACK 78 AUDIO
    TITLE "2:cjc039_2159"
    INDEX 01 02:24:24
  TRACK 79 AUDIO
    TITLE "0:"
    INDEX 01 02:25:47
  TRACK 80 AUDIO
    TITLE "3:cjc039_2160"
    INDEX 01 02:26:29
  TRACK 81 AUDIO
    TITLE "0:"
    INDEX 01 02:30:54
